<!-- Generated by IcoMoon.io -->
<svg version="1.1" xmlns="http://www.w3.org/2000/svg" width="32" height="32" viewBox="0 0 32 32">
<path fill="#ffda44" d="M0 16c0 1.957 0.352 3.832 0.995 5.565l15.005 1.391 15.005-1.391c0.643-1.733 0.995-3.608 0.995-5.565s-0.352-3.832-0.995-5.565l-15.005-1.391-15.005 1.391c-0.643 1.733-0.995 3.608-0.995 5.565z"></path>
<path fill="#d80027" d="M31.004 10.435c-2.261-6.093-8.125-10.435-15.005-10.435s-12.744 4.342-15.005 10.435h30.010z"></path>
<path fill="#d80027" d="M0.995 21.565c2.261 6.093 8.125 10.435 15.005 10.435s12.744-4.342 15.005-10.435h-30.010z"></path>
</svg>
